<svg xmlns="http://www.w3.org/2000/svg" viewBox="0 0 800 250" width="800" height="250" shape-rendering="crispEdges" role="img" aria-label="shaoDe — mouse-first Wayland desktop">
<defs>
<linearGradient id="sun" x1="0" y1="48" x2="0" y2="139" gradientUnits="userSpaceOnUse">
<stop offset="0" stop-color="#ffe066"/><stop offset=".5" stop-color="#ff8a5c"/><stop offset="1" stop-color="#ff4f9a"/>
</linearGradient>
<pattern id="scan" width="4" height="4" patternUnits="userSpaceOnUse"><rect width="4" height="2" fill="#000" opacity=".22"/></pattern>
</defs>
<rect width="800" height="250" rx="12" fill="#14121f"/>
<path d="M152 80h13v13h-13zM165 80h13v13h-13zM178 80h13v13h-13zM191 80h13v13h-13zM139 93h13v13h-13zM152 106h13v13h-13zM165 106h13v13h-13zM178 106h13v13h-13zM191 119h13v13h-13zM139 132h13v13h-13zM152 132h13v13h-13zM165 132h13v13h-13zM178 132h13v13h-13zM217 54h13v13h-13zM217 67h13v13h-13zM217 80h13v13h-13zM243 80h13v13h-13zM256 80h13v13h-13zM217 93h13v13h-13zM230 93h13v13h-13zM269 93h13v13h-13zM217 106h13v13h-13zM269 106h13v13h-13zM217 119h13v13h-13zM269 119h13v13h-13zM217 132h13v13h-13zM269 132h13v13h-13zM308 80h13v13h-13zM321 80h13v13h-13zM334 80h13v13h-13zM347 93h13v13h-13zM308 106h13v13h-13zM321 106h13v13h-13zM334 106h13v13h-13zM347 106h13v13h-13zM295 119h13v13h-13zM347 119h13v13h-13zM308 132h13v13h-13zM321 132h13v13h-13zM334 132h13v13h-13zM347 132h13v13h-13zM386 80h13v13h-13zM399 80h13v13h-13zM412 80h13v13h-13zM373 93h13v13h-13zM425 93h13v13h-13zM373 106h13v13h-13zM425 106h13v13h-13zM373 119h13v13h-13zM425 119h13v13h-13zM386 132h13v13h-13zM399 132h13v13h-13zM412 132h13v13h-13zM451 54h13v13h-13zM464 54h13v13h-13zM477 54h13v13h-13zM451 67h13v13h-13zM490 67h13v13h-13zM451 80h13v13h-13zM503 80h13v13h-13zM451 93h13v13h-13zM503 93h13v13h-13zM451 106h13v13h-13zM503 106h13v13h-13zM451 119h13v13h-13zM490 119h13v13h-13zM451 132h13v13h-13zM464 132h13v13h-13zM477 132h13v13h-13zM542 80h13v13h-13zM555 80h13v13h-13zM568 80h13v13h-13zM529 93h13v13h-13zM581 93h13v13h-13zM529 106h13v13h-13zM542 106h13v13h-13zM555 106h13v13h-13zM568 106h13v13h-13zM581 106h13v13h-13zM529 119h13v13h-13zM542 132h13v13h-13zM555 132h13v13h-13zM568 132h13v13h-13z" fill="#4b1f73"/>
<path d="M146 74h13v13h-13zM159 74h13v13h-13zM172 74h13v13h-13zM185 74h13v13h-13zM133 87h13v13h-13zM146 100h13v13h-13zM159 100h13v13h-13zM172 100h13v13h-13zM185 113h13v13h-13zM133 126h13v13h-13zM146 126h13v13h-13zM159 126h13v13h-13zM172 126h13v13h-13zM211 48h13v13h-13zM211 61h13v13h-13zM211 74h13v13h-13zM237 74h13v13h-13zM250 74h13v13h-13zM211 87h13v13h-13zM224 87h13v13h-13zM263 87h13v13h-13zM211 100h13v13h-13zM263 100h13v13h-13zM211 113h13v13h-13zM263 113h13v13h-13zM211 126h13v13h-13zM263 126h13v13h-13zM302 74h13v13h-13zM315 74h13v13h-13zM328 74h13v13h-13zM341 87h13v13h-13zM302 100h13v13h-13zM315 100h13v13h-13zM328 100h13v13h-13zM341 100h13v13h-13zM289 113h13v13h-13zM341 113h13v13h-13zM302 126h13v13h-13zM315 126h13v13h-13zM328 126h13v13h-13zM341 126h13v13h-13zM380 74h13v13h-13zM393 74h13v13h-13zM406 74h13v13h-13zM367 87h13v13h-13zM419 87h13v13h-13zM367 100h13v13h-13zM419 100h13v13h-13zM367 113h13v13h-13zM419 113h13v13h-13zM380 126h13v13h-13zM393 126h13v13h-13zM406 126h13v13h-13zM445 48h13v13h-13zM458 48h13v13h-13zM471 48h13v13h-13zM445 61h13v13h-13zM484 61h13v13h-13zM445 74h13v13h-13zM497 74h13v13h-13zM445 87h13v13h-13zM497 87h13v13h-13zM445 100h13v13h-13zM497 100h13v13h-13zM445 113h13v13h-13zM484 113h13v13h-13zM445 126h13v13h-13zM458 126h13v13h-13zM471 126h13v13h-13zM536 74h13v13h-13zM549 74h13v13h-13zM562 74h13v13h-13zM523 87h13v13h-13zM575 87h13v13h-13zM523 100h13v13h-13zM536 100h13v13h-13zM549 100h13v13h-13zM562 100h13v13h-13zM575 100h13v13h-13zM523 113h13v13h-13zM536 126h13v13h-13zM549 126h13v13h-13zM562 126h13v13h-13z" fill="url(#sun)"/>
<rect x="614" y="48" width="52" height="91" fill="#ff4f9a"><animate attributeName="opacity" values="1;1;0;0" dur="1.1s" repeatCount="indefinite"/></rect>
<path d="M126 176h4v4h-4zM142 176h4v4h-4zM126 180h4v4h-4zM130 180h4v4h-4zM138 180h4v4h-4zM142 180h4v4h-4zM126 184h4v4h-4zM134 184h4v4h-4zM142 184h4v4h-4zM126 188h4v4h-4zM142 188h4v4h-4zM126 192h4v4h-4zM142 192h4v4h-4zM154 176h4v4h-4zM158 176h4v4h-4zM162 176h4v4h-4zM150 180h4v4h-4zM166 180h4v4h-4zM150 184h4v4h-4zM166 184h4v4h-4zM150 188h4v4h-4zM166 188h4v4h-4zM154 192h4v4h-4zM158 192h4v4h-4zM162 192h4v4h-4zM174 176h4v4h-4zM186 176h4v4h-4zM174 180h4v4h-4zM186 180h4v4h-4zM174 184h4v4h-4zM186 184h4v4h-4zM174 188h4v4h-4zM186 188h4v4h-4zM178 192h4v4h-4zM182 192h4v4h-4zM198 176h4v4h-4zM202 176h4v4h-4zM206 176h4v4h-4zM194 180h4v4h-4zM198 184h4v4h-4zM202 184h4v4h-4zM206 188h4v4h-4zM194 192h4v4h-4zM198 192h4v4h-4zM202 192h4v4h-4zM214 176h4v4h-4zM218 176h4v4h-4zM222 176h4v4h-4zM226 176h4v4h-4zM214 180h4v4h-4zM214 184h4v4h-4zM218 184h4v4h-4zM222 184h4v4h-4zM214 188h4v4h-4zM214 192h4v4h-4zM218 192h4v4h-4zM222 192h4v4h-4zM226 192h4v4h-4zM234 184h4v4h-4zM238 184h4v4h-4zM242 184h4v4h-4zM250 176h4v4h-4zM254 176h4v4h-4zM258 176h4v4h-4zM262 176h4v4h-4zM250 180h4v4h-4zM250 184h4v4h-4zM254 184h4v4h-4zM258 184h4v4h-4zM250 188h4v4h-4zM250 192h4v4h-4zM270 176h4v4h-4zM274 176h4v4h-4zM278 176h4v4h-4zM274 180h4v4h-4zM274 184h4v4h-4zM274 188h4v4h-4zM270 192h4v4h-4zM274 192h4v4h-4zM278 192h4v4h-4zM286 176h4v4h-4zM290 176h4v4h-4zM294 176h4v4h-4zM286 180h4v4h-4zM298 180h4v4h-4zM286 184h4v4h-4zM290 184h4v4h-4zM294 184h4v4h-4zM286 188h4v4h-4zM294 188h4v4h-4zM286 192h4v4h-4zM298 192h4v4h-4zM310 176h4v4h-4zM314 176h4v4h-4zM318 176h4v4h-4zM306 180h4v4h-4zM310 184h4v4h-4zM314 184h4v4h-4zM318 188h4v4h-4zM306 192h4v4h-4zM310 192h4v4h-4zM314 192h4v4h-4zM326 176h4v4h-4zM330 176h4v4h-4zM334 176h4v4h-4zM330 180h4v4h-4zM330 184h4v4h-4zM330 188h4v4h-4zM330 192h4v4h-4zM358 176h4v4h-4zM374 176h4v4h-4zM358 180h4v4h-4zM374 180h4v4h-4zM358 184h4v4h-4zM366 184h4v4h-4zM374 184h4v4h-4zM358 188h4v4h-4zM362 188h4v4h-4zM370 188h4v4h-4zM374 188h4v4h-4zM358 192h4v4h-4zM374 192h4v4h-4zM386 176h4v4h-4zM390 176h4v4h-4zM394 176h4v4h-4zM382 180h4v4h-4zM398 180h4v4h-4zM382 184h4v4h-4zM386 184h4v4h-4zM390 184h4v4h-4zM394 184h4v4h-4zM398 184h4v4h-4zM382 188h4v4h-4zM398 188h4v4h-4zM382 192h4v4h-4zM398 192h4v4h-4zM406 176h4v4h-4zM414 176h4v4h-4zM406 180h4v4h-4zM414 180h4v4h-4zM410 184h4v4h-4zM410 188h4v4h-4zM410 192h4v4h-4zM426 176h4v4h-4zM426 180h4v4h-4zM426 184h4v4h-4zM426 188h4v4h-4zM426 192h4v4h-4zM430 192h4v4h-4zM434 192h4v4h-4zM438 192h4v4h-4zM450 176h4v4h-4zM454 176h4v4h-4zM458 176h4v4h-4zM446 180h4v4h-4zM462 180h4v4h-4zM446 184h4v4h-4zM450 184h4v4h-4zM454 184h4v4h-4zM458 184h4v4h-4zM462 184h4v4h-4zM446 188h4v4h-4zM462 188h4v4h-4zM446 192h4v4h-4zM462 192h4v4h-4zM470 176h4v4h-4zM486 176h4v4h-4zM470 180h4v4h-4zM474 180h4v4h-4zM486 180h4v4h-4zM470 184h4v4h-4zM478 184h4v4h-4zM486 184h4v4h-4zM470 188h4v4h-4zM482 188h4v4h-4zM486 188h4v4h-4zM470 192h4v4h-4zM486 192h4v4h-4zM494 176h4v4h-4zM498 176h4v4h-4zM502 176h4v4h-4zM506 176h4v4h-4zM494 180h4v4h-4zM510 180h4v4h-4zM494 184h4v4h-4zM510 184h4v4h-4zM494 188h4v4h-4zM510 188h4v4h-4zM494 192h4v4h-4zM498 192h4v4h-4zM502 192h4v4h-4zM506 192h4v4h-4zM534 176h4v4h-4zM538 176h4v4h-4zM542 176h4v4h-4zM546 176h4v4h-4zM534 180h4v4h-4zM550 180h4v4h-4zM534 184h4v4h-4zM550 184h4v4h-4zM534 188h4v4h-4zM550 188h4v4h-4zM534 192h4v4h-4zM538 192h4v4h-4zM542 192h4v4h-4zM546 192h4v4h-4zM558 176h4v4h-4zM562 176h4v4h-4zM566 176h4v4h-4zM570 176h4v4h-4zM558 180h4v4h-4zM558 184h4v4h-4zM562 184h4v4h-4zM566 184h4v4h-4zM558 188h4v4h-4zM558 192h4v4h-4zM562 192h4v4h-4zM566 192h4v4h-4zM570 192h4v4h-4zM582 176h4v4h-4zM586 176h4v4h-4zM590 176h4v4h-4zM578 180h4v4h-4zM582 184h4v4h-4zM586 184h4v4h-4zM590 188h4v4h-4zM578 192h4v4h-4zM582 192h4v4h-4zM586 192h4v4h-4zM598 176h4v4h-4zM610 176h4v4h-4zM598 180h4v4h-4zM606 180h4v4h-4zM598 184h4v4h-4zM602 184h4v4h-4zM598 188h4v4h-4zM606 188h4v4h-4zM598 192h4v4h-4zM610 192h4v4h-4zM618 176h4v4h-4zM622 176h4v4h-4zM626 176h4v4h-4zM622 180h4v4h-4zM622 184h4v4h-4zM622 188h4v4h-4zM622 192h4v4h-4zM638 176h4v4h-4zM642 176h4v4h-4zM646 176h4v4h-4zM634 180h4v4h-4zM650 180h4v4h-4zM634 184h4v4h-4zM650 184h4v4h-4zM634 188h4v4h-4zM650 188h4v4h-4zM638 192h4v4h-4zM642 192h4v4h-4zM646 192h4v4h-4zM658 176h4v4h-4zM662 176h4v4h-4zM666 176h4v4h-4zM658 180h4v4h-4zM670 180h4v4h-4zM658 184h4v4h-4zM662 184h4v4h-4zM666 184h4v4h-4zM658 188h4v4h-4zM658 192h4v4h-4z" fill="#7ee3ff"/>
<rect width="800" height="250" rx="12" fill="url(#scan)"/>
</svg>
